<svg width="560" height="160" xmlns="http://www.w3.org/2000/svg" preserveAspectRatio="xMidYMid meet">
 <defs>
  <path id="svgEditorClosePathDefs" stroke="black" fill="khaki" stroke-width=" 1px"/>
 </defs>
 <g>
  <title>background</title>
  <rect x="-1" y="-1" width="562" height="162" id="canvas_background" fill="none"/>
 </g>
 <g>
  <title>Layer 1</title>
  <polygon id="e6_polygon" points="354.25,6.75 346.25,10.25 337.5,14.5 332.5,17.25 326.75,20.25 321.75,23 316.75,26.5 311.25,30.25 305,34.25 297.5,39.75 290.75,44.25 281.5,50.5 274,56 261.75,66.25 255,71.75 248,78.25 244.5,82 260.5,75 273,68 286.25,61.5 299.25,54.5 312,50.25 325,45.5 337.75,42 351.5,39.5 360.5,39.25 369.25,38 360.75,33.25 354,28.75 350.75,24.25 348.5,19 351.25,11.75 353.25,6.75 " fill="#1d628b" stroke-width="NaN"/>
  <polygon id="e7_polygon" points="440.73419189453125,17.063430786132812 432.04632568359375,18.801376342773438 422.453857421875,21.11468505859375 416.90380859375,22.750808715820312 410.55584716796875,24.473480224609375 405.0057373046875,26.109588623046875 399.29541015625,28.478912353515625 393.035400390625,30.987411499023438 385.97760009765625,33.58245849609375 377.358642578125,37.38084411621094 369.69775390625,40.359466552734375 359.181640625,44.52275085449219 350.562744140625,48.32112121582031 336.2144775390625,55.76344299316406 328.3399658203125,59.71966552734375 320.00360107421875,64.60089111328125 315.72857666015625,67.53028869628906 333.10430908203125,64.05439758300781 347.00628662109375,59.84190368652344 361.5457763671875,56.27604675292969 375.9439697265625,52.168792724609375 389.5064697265625,50.69731140136719 403.4239501953125,48.78965759277344 416.82623291015625,48.05137634277344 431.00726318359375,48.50117492675781 439.99322509765625,50.15089416503906 448.9447021484375,50.77040100097656 441.5233154296875,44.337890625 435.785400390625,38.51808166503906 433.52130126953125,33.43487548828125 432.409912109375,27.828933715820312 436.6883544921875,21.320068359375 439.74169921875,16.85296630859375 " fill="#1d628b" stroke-width="NaN" stroke="null"/>
  <polygon stroke="null" id="e8_polygon" points="526.4984527663037,47.81915242924879 517.4388017513265,47.510431910601255 507.34177039563656,47.585015766788274 501.4283966625808,47.94254788307808 494.70055798176327,48.19450649296414 488.7871842487075,48.55203860925394 482.53862614399986,49.64437823073604 475.7098764356342,50.74796422982217 468.06678659215686,51.745976722504565 458.5822109101573,53.62940542664364 450.2471597349213,54.88360013199417 438.787923116819,56.68398121123391 429.30334743481944,58.567393352224826 413.2458255706879,62.88464417402611 404.4638827020244,65.11858221963303 395.0008372021548,68.21539403204406 390.04583740234375,70.25367160837777 408.1642657437478,70.87306709715631 423.00355373727507,69.85676888889975 438.3221847132372,69.68083512909107 453.62989458232187,68.8982098151464 467.47448816144606,70.69299255030637 481.7767073219002,72.11474006249409 495.2861165293725,74.64431373969819 509.2854153882072,78.6209599826343 517.829153314291,82.58211968203614 526.5854471833736,85.44669959402563 520.7447144126345,76.82059546654273 516.4318756972207,69.25726574106739 515.3980525170336,63.32962971262714 515.6363822722633,57.13454853076655 521.4528389825718,51.31672617466029 525.5615466088639,47.351806640625 " fill="#1d628b" stroke-width="NaN"/>
  <text font-weight="normal" fill="#1d628b" x="358.32897" y="173.342985" id="e9_texte" transform="matrix(2.051610212900638,0,0,1.2549761736238005,-727.9632590305621,-153.23038334761895) " font-family=" Impact" font-size="47" font-style="normal">Brødr.</text>
  <text style="cursor: move;" fill="#1d628b" x="243.183678" y="192.836477" id="e10_texte" transform="matrix(2.8843400000000003,0,0,1.6627300000000005,-696.7490000000001,-173.889) " font-family=" Impact" font-size="50" font-style="normal">Brøndbo</text>
 </g>
</svg>