<svg width="560" height="160" xmlns="http://www.w3.org/2000/svg" preserveAspectRatio="xMidYMid meet">
 <defs>
  <path id="svgEditorClosePathDefs" stroke="black" fill="khaki" stroke-width=" 1px"/>
 </defs>
 <g>
  <title>background</title>
  <rect x="-1" y="-1" width="562" height="162" id="canvas_background" fill="none"/>
 </g>
 <g>
  <title>Layer 1</title>
  <polygon id="e6_polygon" points="383.25,11.75 375.25,15.25 366.5,19.5 361.5,22.25 355.75,25.25 350.75,28 345.75,31.5 340.25,35.25 334,39.25 326.5,44.75 319.75,49.25 310.5,55.5 303,61 290.75,71.25 284,76.75 277,83.25 273.5,87 289.5,80 302,73 315.25,66.5 328.25,59.5 341,55.25 354,50.5 366.75,47 380.5,44.5 389.5,44.25 398.25,43 389.75,38.25 383,33.75 379.75,29.25 377.5,24 380.25,16.75 382.25,11.75 " fill="#1d628b" stroke-width="NaN"/>
  <polygon id="e7_polygon" points="469.73419189453125,22.063430786132812 461.04632568359375,23.801376342773438 451.453857421875,26.11468505859375 445.90380859375,27.750808715820312 439.55584716796875,29.473480224609375 434.0057373046875,31.109588623046875 428.29541015625,33.478912353515625 422.035400390625,35.98741149902344 414.97760009765625,38.58245849609375 406.358642578125,42.38084411621094 398.69775390625,45.359466552734375 388.181640625,49.52275085449219 379.562744140625,53.32112121582031 365.2144775390625,60.76344299316406 357.3399658203125,64.71966552734375 349.00360107421875,69.60089111328125 344.72857666015625,72.53028869628906 362.10430908203125,69.05439758300781 376.00628662109375,64.84190368652344 390.5457763671875,61.27604675292969 404.9439697265625,57.168792724609375 418.5064697265625,55.69731140136719 432.4239501953125,53.78965759277344 445.82623291015625,53.05137634277344 460.00726318359375,53.50117492675781 468.99322509765625,55.15089416503906 477.9447021484375,55.77040100097656 470.5233154296875,49.337890625 464.785400390625,43.51808166503906 462.52130126953125,38.43487548828125 461.409912109375,32.82893371582031 465.6883544921875,26.320068359375 468.74169921875,21.85296630859375 " fill="#1d628b" stroke-width="NaN" stroke="null"/>
  <polygon id="e8_polygon" points="552.5003662109375,52.7823486328125 543.6397705078125,52.49794006347656 533.7645874023438,52.566650390625 527.9811401367188,52.896026611328125 521.401123046875,53.128143310546875 515.61767578125,53.45751953125 509.50640869140625,54.463836669921875 502.82769775390625,55.48051452636719 495.3525390625,56.399932861328125 486.07635498046875,58.135040283203125 477.9244384765625,59.29046630859375 466.71697998046875,60.949066162109375 457.4407958984375,62.68415832519531 441.736083984375,66.66142272949219 433.1470947265625,68.71943664550781 423.8919677734375,71.57237243652344 419.04583740234375,73.45013427734375 436.76617431640625,74.020751953125 451.2794189453125,73.08448791503906 466.261474609375,72.92240905761719 481.23284912109375,72.201416015625 494.77325439453125,73.8548583984375 508.76123046875,75.16464233398438 521.9738159179688,77.49501037597656 535.66552734375,81.15849304199219 544.0215454101562,84.80770874023438 552.58544921875,87.44670104980469 546.873046875,79.49990844726562 542.6549682617188,72.53219604492188 541.6438598632812,67.07136535644531 541.876953125,61.36415100097656 547.5656127929688,56.004486083984375 551.5840454101562,52.351806640625 " fill="#1d628b" stroke-width="NaN" stroke="null"/>
  <text fill="#1d628b" x="379.842942" y="173.342985" id="e9_texte" transform="matrix(2.051610212900638,0,0,1.2549761736238005,-727.9632590305621,-153.23038334761895) " font-family=" Impact" font-size="47" font-style="italic">Brødr.</text>
  <text fill="#1d628b" x="243.183678" y="192.836477" id="e10_texte" transform="matrix(2.8843400000000003,0,0,1.6627300000000005,-696.7490000000001,-173.889) " font-family=" Impact" font-size="50" font-style="italic">Brøndbo</text>
 </g>
</svg>